# xmcd
#
# Track frame offsets:
#	150
#	10111
#	20983
#	30376
#	42789
#	53607
#	65032
#	75700
#	87895
#	98700
#	108198
#	120342
#	128739
#	138893
#	149698
#	160335
#	169081
#	179144
#	191339
#	203070
#
# Disc length: 2833 seconds
#
# Revision: 0
# Processed by: cddbd v1.5.2PL0 Copyright (c) Steve Scherf et al.
# Submitted via: audiograbber 1.83.01
#
DISCID=0a0b0f14
DTITLE=ROCK N ROLL COWBOYS - CD10
DYEAR=2014
DGENRE=Country
TTITLE0=JOHNNY CASH - BALLAD OF A TEENAGE QUEEN
TTITLE1=DON GIBSON - LOOK WHO´S BLUE
TTITLE2=MARVIN RAINWATER - LOVE ME BABY
TTITLE3=CECIL FOUTCH - BIG WHEEL
TTITLE4=JOHNNY HORTON - THE SINKING OF THE REUBEN JAMES
TTITLE5=JACK KINGSTON - FREIGHT TRAIN BLUES
TTITLE6=BOB LUMAN - I KNOW MY BABY CARES
TTITLE7=SANFORD CLARK - THE FOOL
TTITLE8=RUSTY and DOUG KERSHAW - HEY SHERIFF
TTITLE9=FARON YOUNG - I´VE GOT FIVE DOLLARS
TTITLE10=GEORGE JONES - ROAT BEER
TTITLE11=MARTY ROBBINS - I´LL KNOW YOU´RE GONE
TTITLE12=HANK THOMPSON - WAKE UP IRENE
TTITLE13=PORTER WAGONER - UNCLE PEN
TTITLE14=WILBURN BROTHERS - A WOMAN´S INTUITION
TTITLE15=BILL CLIFTON - I´M ROLLIN´ON
TTITLE16=DON GIBSON - IF YOU DON´T KNOW IT
TTITLE17=JOHNNY NELMS - MISTER FREIGHT TRAIN
TTITLE18=JOHNNY HORTON - JOE´S BEEN A-GITTIN´HERE
TTITLE19=HANK SNOW - FOR NOW AND ALWAYS
EXTD=
EXTT0=
EXTT1=
EXTT2=
EXTT3=
EXTT4=
EXTT5=
EXTT6=
EXTT7=
EXTT8=
EXTT9=
EXTT10=
EXTT11=
EXTT12=
EXTT13=
EXTT14=
EXTT15=
EXTT16=
EXTT17=
EXTT18=
EXTT19=
PLAYORDER=
